<svg width="104" height="50" viewBox="0 0 104 50" fill="none" xmlns="http://www.w3.org/2000/svg">
<g id="Group 80">
<g id="Iconly/Bold/Star">
<g id="Star">
<path id="Vector" d="M98.6917 39.3624C98.3551 39.6887 98.2004 40.1605 98.2771 40.6232L99.4325 47.0177C99.53 47.5597 99.3013 48.1081 98.8477 48.4214C98.4032 48.7463 97.8118 48.7853 97.327 48.5253L91.5707 45.523C91.3705 45.4164 91.1483 45.3593 90.9208 45.3528H90.5686C90.4464 45.371 90.3268 45.41 90.2177 45.4697L84.46 48.4863C84.1754 48.6293 83.853 48.68 83.5372 48.6293C82.7678 48.4837 82.2544 47.7507 82.3805 46.9774L83.5372 40.5829C83.6139 40.1163 83.4592 39.6419 83.1226 39.3105L78.4294 34.7615C78.0369 34.3807 77.9004 33.8088 78.0798 33.2929C78.2539 32.7782 78.6984 32.4026 79.2352 32.3181L85.6947 31.381C86.186 31.3303 86.6175 31.0314 86.8384 30.5895L89.6848 24.7538C89.7524 24.6239 89.8395 24.5043 89.9447 24.4029L90.0617 24.3119C90.1228 24.2443 90.193 24.1885 90.271 24.143L90.4126 24.091L90.6336 24H91.1807C91.6694 24.0507 92.0996 24.3431 92.3245 24.7798L95.2085 30.5895C95.4165 31.0145 95.8207 31.3095 96.2873 31.381L102.747 32.3181C103.293 32.3961 103.749 32.773 103.929 33.2929C104.1 33.814 103.953 34.3859 103.553 34.7615L98.6917 39.3624Z" fill="#EA6852"/>
</g>
</g>
<g id="Iconly/Bold/Star_2">
<g id="Star_2">
<path id="Vector_2" d="M20.6898 39.3624C20.3531 39.6887 20.1985 40.1605 20.2752 40.6232L21.4306 47.0177C21.5281 47.5597 21.2993 48.1081 20.8457 48.4214C20.4012 48.7463 19.8099 48.7853 19.3251 48.5253L13.5687 45.523C13.3685 45.4164 13.1463 45.3593 12.9189 45.3528H12.5666C12.4445 45.371 12.3249 45.41 12.2157 45.4697L6.45805 48.4863C6.17341 48.6293 5.85109 48.68 5.53526 48.6293C4.76584 48.4837 4.25246 47.7507 4.37853 46.9774L5.53526 40.5829C5.61194 40.1163 5.45728 39.6419 5.12066 39.3105L0.42744 34.7615C0.0349305 34.3807 -0.101538 33.8088 0.0778206 33.2929C0.25198 32.7782 0.696478 32.4026 1.23325 32.3181L7.69276 31.381C8.18405 31.3303 8.61555 31.0314 8.8365 30.5895L11.6828 24.7538C11.7504 24.6239 11.8375 24.5043 11.9428 24.4029L12.0597 24.3119C12.1208 24.2443 12.191 24.1885 12.269 24.143L12.4107 24.091L12.6316 24H13.1788C13.6675 24.0507 14.0977 24.3431 14.3225 24.7798L17.2066 30.5895C17.4145 31.0145 17.8187 31.3095 18.2853 31.381L24.7448 32.3181C25.2907 32.3961 25.7469 32.773 25.9275 33.2929C26.0978 33.814 25.9509 34.3859 25.5506 34.7615L20.6898 39.3624Z" fill="#EA6852"/>
</g>
</g>
<g id="Iconly/Bold/Star_3">
<g id="Star_3">
<path id="Vector_3" d="M67.3838 30.7295C66.7105 31.3821 66.4011 32.3258 66.5545 33.2513L68.8657 46.0423C69.0607 47.1264 68.6031 48.2235 67.6958 48.8501C66.8066 49.5 65.6237 49.578 64.654 49.0581L53.1395 43.0525C52.7392 42.8394 52.2946 42.725 51.8396 42.712H51.1351C50.8907 42.7484 50.6515 42.8264 50.4332 42.9459L38.9161 48.9801C38.3467 49.266 37.702 49.3674 37.0702 49.266C35.5312 48.9749 34.5042 47.5086 34.7564 45.9617L37.0702 33.1707C37.2236 32.2374 36.9142 31.2885 36.2409 30.6255L26.8531 21.5263C26.0679 20.7645 25.7949 19.6206 26.1537 18.5885C26.5021 17.559 27.3912 16.8076 28.4649 16.6387L41.3859 14.7642C42.3686 14.6628 43.2317 14.0649 43.6737 13.1809L49.3672 1.50788C49.5024 1.2479 49.6766 1.00872 49.8872 0.805935L50.1212 0.62395C50.2434 0.488761 50.3838 0.37697 50.5398 0.285977L50.8231 0.181985L51.2651 0H52.3596C53.3371 0.101392 54.1977 0.686345 54.6474 1.55987L60.4164 13.1809C60.8323 14.0311 61.6409 14.6212 62.5742 14.7642L75.4951 16.6387C76.5871 16.7946 77.4996 17.5486 77.861 18.5885C78.2015 19.631 77.9078 20.7749 77.107 21.5263L67.3838 30.7295Z" fill="#EA6852"/>
</g>
</g>
</g>
</svg>
